<?xml version="1.0" encoding="utf-8"?>
<!-- Generator: Adobe Illustrator 23.0.6, SVG Export Plug-In . SVG Version: 6.00 Build 0)  -->
<svg version="1.1" id="Layer_1" xmlns="http://www.w3.org/2000/svg" xmlns:xlink="http://www.w3.org/1999/xlink" x="0px" y="0px"
	 viewBox="0 0 64 80" style="enable-background:new 0 0 64 80;" xml:space="preserve">
<title>bed</title>
<g>
	<path d="M59,38.2V12c0-1.7-1.3-3-3-3s-3,1.3-3,3H11c0-1.7-1.3-3-3-3s-3,1.3-3,3v26.2c-1.2,0.4-2,1.6-2,2.8v14h4.8l1-6h46.3l1,6H61
		V41C61,39.7,60.2,38.6,59,38.2z M15,21.9c0-1.1,0.9-1.9,1.9-1.9h10.2c1.1,0,1.9,0.9,1.9,1.9V28H15V21.9z M35,21.9
		c0-1.1,0.9-1.9,1.9-1.9h10.2c1.1,0,1.9,0.9,1.9,1.9V28H35V21.9z M7.9,32.8c0.1-0.2,0.2-0.3,0.3-0.5l0,0l0,0l0.1-0.1
		c0.1-0.1,0.1-0.2,0.2-0.3l0,0l0.2-0.2c0.3-0.3,0.6-0.5,0.9-0.7l0.3-0.2c0.2-0.1,0.4-0.2,0.6-0.3c0.8-0.4,1.7-0.6,2.6-0.6h38
		c3.3,0,6,2.7,6,6v2H7v-2C7,34.9,7.3,33.8,7.9,32.8z"/>
</g>
</svg>
