<?xml version="1.0" encoding="utf-8"?>
<!-- Generator: Adobe Illustrator 23.0.6, SVG Export Plug-In . SVG Version: 6.00 Build 0)  -->
<svg version="1.1" xmlns="http://www.w3.org/2000/svg" xmlns:xlink="http://www.w3.org/1999/xlink" x="0px" y="0px"
	 viewBox="0 0 100 125" style="enable-background:new 0 0 100 125;" xml:space="preserve">
<g id="Layer_2">
</g>
<g id="Layer_1">
	<g>
		<path d="M86.7,52c-0.5-0.6-0.9-1.1-1.3-1.4l-6.9-23.3c-0.6-2.2-2.7-3.7-5-3.7h-2.7c-0.4,1.9-1,3.7-1.8,5.4h4.4l6.3,21H20.3
			l6.2-21.2H31c-0.8-1.7-1.5-3.5-1.8-5.4h-2.7c-2.3,0-4.4,1.5-5,3.7l-6.9,23.3c-0.4,0.4-0.9,0.8-1.3,1.4c-3,3.7-4.5,8.5-4.5,13.3
			v16.4c0,1.5,1.2,2.6,2.6,2.6h7.1v9.4c0,2.1,1.7,3.8,3.8,3.8h2.9c2.1,0,3.8-1.7,3.8-3.8v-9.4h42.2v9.4c0,2.1,1.7,3.8,3.8,3.8h2.9
			c2.1,0,3.8-1.7,3.8-3.8v-9.4h6c2,0,3.7-1.7,3.7-3.7V65.3C91.3,60.5,89.7,55.7,86.7,52z M23.7,73.1c-3.2,0-5.9-2.6-5.9-5.9
			c0-3.2,2.6-5.9,5.9-5.9s5.9,2.6,5.9,5.9C29.5,70.4,26.9,73.1,23.7,73.1z M76.3,73.1c-3.2,0-5.9-2.6-5.9-5.9c0-3.2,2.6-5.9,5.9-5.9
			c3.2,0,5.9,2.6,5.9,5.9C82.2,70.4,79.6,73.1,76.3,73.1z"/>
		<path d="M50,36.4c9.3,0,16.9-7.6,16.9-16.9s-7.6-17-16.9-17s-16.9,7.6-16.9,16.9S40.7,36.4,50,36.4z M49.6,21.2
			c-3.6-1.3-5.4-3.3-5.4-6c0-2.4,1.5-4.3,3.9-5V8.4c0-0.4,0.3-0.7,0.7-0.7h1.9c0.4,0,0.7,0.3,0.7,0.7v1.7c1.3,0.3,2.4,0.9,3.1,1.4
			c0.4,0.3,0.5,0.9,0.1,1.3l-1.2,1.3c-0.3,0.3-0.7,0.4-1.1,0.1c-0.6-0.4-1.4-0.8-2.2-0.7c-0.5,0-2.3,0.2-2.3,1.7c0,0.5,0,1.5,3,2.6
			c1.5,0.5,5.1,1.8,5.1,5.7c0,2.8-1.7,4.8-4.5,5.3v1.7c0,0.4-0.3,0.7-0.7,0.7h-1.9c-0.4,0-0.7-0.3-0.7-0.7v-1.9
			c-1.6-0.5-2.9-1.4-3.7-2c-0.4-0.3-0.4-0.9-0.1-1.3l1.3-1.3c0.3-0.3,0.8-0.3,1.1-0.1c0.8,0.6,2.1,1.4,3.2,1.4
			c2.3,0,2.3-1.3,2.3-1.8C52.3,22.8,52.1,22.1,49.6,21.2z"/>
	</g>
</g>
</svg>
