<?xml version="1.0" encoding="utf-8"?>
<!-- Generator: Adobe Illustrator 23.0.6, SVG Export Plug-In . SVG Version: 6.00 Build 0)  -->
<svg version="1.1" id="Layer_1" xmlns="http://www.w3.org/2000/svg" xmlns:xlink="http://www.w3.org/1999/xlink" x="0px" y="0px"
	 viewBox="0 0 66 82.5" style="enable-background:new 0 0 66 82.5;" xml:space="preserve">
<g>
	<g>
		<path d="M37.8,58.3c12.5-7.5,13.5-7.1,13.9-8.9c0.4-2.2-2.4-3.9-4.5-3c-8.9,3.7-9.1,4.2-10.8,4.2l-4.8-0.2l2.4-0.7
			c1.5-0.5,2.3-2,2-3.5c-0.1-0.1-0.4-2.5-3-2.5l0,0c-16.4,1.4-9.5,0.3-16.5,2.9l2.1,13.5c0.3-0.2,0.6-0.3,0.9-0.3
			C35.9,58.8,36.1,59.3,37.8,58.3z"/>
	</g>
	<g>
		<path d="M7.1,48.6l2.4,15.3c0.1,1,1,1.7,1.9,1.7c0.5,0,0.6-0.1,4-1.1c0.9-0.3,1.5-1.2,1.4-2.2L14.4,47c-0.2-1.1-1.4-1.9-2.5-1.6
			l-3.4,1C7.6,46.7,7,47.6,7.1,48.6z"/>
	</g>
	<g>
		<path d="M12.9,26.7h43.8C55.2,15.9,46,7.5,34.8,7.5S14.3,15.9,12.9,26.7z M19,22.7c2.4-6.6,8.7-11.1,15.8-11.1c0.6,0,1,0.4,1,1
			s-0.4,1-1,1c-6.2,0-11.8,3.9-13.9,9.8c-0.1,0.4-0.5,0.7-0.9,0.7c-0.1,0-0.2,0-0.3-0.1C19.1,23.8,18.8,23.3,19,22.7z"/>
	</g>
	<g>
		<path d="M10.7,29.7v5.1c0,0.5,0.5,1,1,1H58c0.5,0,1-0.5,1-1v-5.1c0-0.6-0.5-1-1-1H11.7C11.1,28.7,10.7,29.1,10.7,29.7z"/>
	</g>
	<g>
		<path d="M19.4,40.9h30.8c0.3,0,0.5-0.1,0.7-0.3l2.5-2.8H16.1l2.5,2.8C18.8,40.7,19.1,40.9,19.4,40.9z"/>
	</g>
	<g>
		<path d="M39.2,5.9c0.1-0.3,0.1-0.6,0.1-0.9c0-2.5-2-4.5-4.5-4.5s-4.5,2-4.5,4.5c0,0.3,0,0.6,0.1,0.9c0.6-0.1,1.3-0.2,2-0.3
			c0-0.2-0.1-0.4-0.1-0.6c0-1.4,1.1-2.5,2.5-2.5s2.5,1.1,2.5,2.5c0,0.2,0,0.4-0.1,0.6C37.9,5.7,38.6,5.8,39.2,5.9z"/>
	</g>
</g>
</svg>
