<?xml version="1.0" encoding="utf-8"?>
<!-- Generator: Adobe Illustrator 23.0.6, SVG Export Plug-In . SVG Version: 6.00 Build 0)  -->
<svg version="1.1" id="Layer_1" xmlns="http://www.w3.org/2000/svg" xmlns:xlink="http://www.w3.org/1999/xlink" x="0px" y="0px"
	 viewBox="0 0 52 65" style="enable-background:new 0 0 52 65;" xml:space="preserve">
<g>
	<g>
		<path d="M46,29c-5,0-9,3.8-9.4,8.7c-0.3,0.1-0.6,0.1-0.8,0.2c1.2-1.8,1.2-4.1,0-6l-0.9-1.4l-1.4,0.9c-2.4,1.7-3.1,5-1.5,7.5
			l0.2,0.3c-2.4,1.2-4.1,2.6-5.2,3.8V28.7c0.1,0,0.1,0,0.2,0c4.4,0,7.3-1.1,8.8-3.2c1.7-2.5,0.7-5.3,0.7-5.5l-0.1-0.2
			c-4.4-7.6-1.4-12-1.2-12.2l2.1-2.9L25.2,9.8l-0.1,0.1C24,10.5,14.4,16,15,21.7c0.4,2.9,3.3,5.2,8.9,6.7c0.4,0.1,0.7,0.2,1.1,0.2
			V40c-1.1-1.2-2.7-2.7-5.2-3.8l0.2-0.3c1.6-2.5,1-5.9-1.5-7.5l-1.4-0.9l-0.9,1.4c-1.2,1.9-1.1,4.3,0,6c-0.3-0.1-0.5-0.1-0.8-0.2
			C15,29.8,11,26,6,26H5v1.2c0,5.2,4.3,9.5,9.5,9.5h0.8c-2.3,0.6-3.9,2.7-3.9,5.2l0,2.5l2.3,0c2.9,0,5.3-2.4,5.3-5.4l0-1
			c4.4,2.1,5.7,5,6,5.6v5.9h2v-2.8c0.3-0.7,1.6-3.5,6-5.6l0,1c0,2.9,2.3,5.3,5.3,5.4l2.3,0l0-2.5c0-2.5-1.7-4.6-3.9-5.2h0.8
			c5.2,0,9.5-4.2,9.5-9.5V29H46z"/>
	</g>
	<g>
		<path d="M16.8,13.5c2-2,4.4-3.7,6.1-4.7l-9-6.3l1.2,3.1C15.1,5.7,16.6,9.7,16.8,13.5z"/>
	</g>
	<g>
		<path d="M22.1,5.5c0.7-0.7,1.6-1.5,2.7-2.1c-3.2-1.2-6.2-0.9-6.4-0.9l-0.9,0.1l0,0.1L22,5.7L22.1,5.5z"/>
	</g>
	<g>
		<path d="M24.9,7.8l8.2-3.4l-0.8-0.1c-4.5-0.7-7.2,1-8.7,2.6L24.9,7.8z"/>
	</g>
</g>
</svg>
