<?xml version="1.0" encoding="utf-8"?>
<!-- Generator: Adobe Illustrator 23.0.6, SVG Export Plug-In . SVG Version: 6.00 Build 0)  -->
<svg version="1.1" id="Layer_1" xmlns="http://www.w3.org/2000/svg" xmlns:xlink="http://www.w3.org/1999/xlink" x="0px" y="0px"
	 viewBox="0 0 35 43.8" style="enable-background:new 0 0 35 43.8;" xml:space="preserve">
<g>
	<path d="M17.5,14.5c3.3,0,6-3.7,6-7s-2.7-6-6-6s-6,2.7-6,6S14.2,14.5,17.5,14.5z"/>
	<path d="M22.4,14.4c-1.3,1.3-3,2.1-4.9,2.1s-3.6-0.8-4.9-2.1c-9.8,4-7.9,14.3-8.1,15.1c0,1.1,0.9,2,2,2h3v-5c0-2.2,1.7-3.9,3.9-4
		c0.4-1.2,1.6-2,2.8-2h2.6c1.3,0,2.4,0.8,2.8,2c2.2,0.1,3.9,1.8,3.9,4v5h3c1.1,0,2-0.9,2-2C30.3,28.7,32.2,18.4,22.4,14.4z"/>
	<path d="M21.5,24.5h-1.3l-0.4-1.3c-0.1-0.4-0.5-0.7-0.9-0.7h-2.6c-0.4,0-0.8,0.3-0.9,0.7L15,24.5h-1.3c-1.1,0-2,0.9-2,2v5
		c0,1.1,0.9,2,2,2h8c1.1,0,2-0.9,2-2v-5C23.5,25.4,22.6,24.5,21.5,24.5z M17.5,32.5c-2.2,0-4-1.8-4-4s1.8-4,4-4s4,1.8,4,4
		S19.7,32.5,17.5,32.5z"/>
	<circle cx="17.5" cy="28.5" r="2"/>
</g>
</svg>
