<?xml version="1.0" encoding="utf-8"?>
<!-- Generator: Adobe Illustrator 23.0.6, SVG Export Plug-In . SVG Version: 6.00 Build 0)  -->
<svg version="1.1" id="Layer_1" xmlns="http://www.w3.org/2000/svg" xmlns:xlink="http://www.w3.org/1999/xlink" x="0px" y="0px"
	 viewBox="0 0 100 125" style="enable-background:new 0 0 100 125;" xml:space="preserve">
<g>
	<path d="M28,60.3c0,2.3,2.1,2.4,2.4,2.4c0.4,0,2.4-0.1,2.4-2.4c0-1.2,0.4-2.2,1.1-2.9c1.1-1.1,2.8-1.2,2.9-1.2c0,0,0,0,0,0
		c0,0,0,0,0,0v0c1.4,0,4,0.9,4,4.1c0,2.3,2.1,2.4,2.4,2.4c0.4,0,2.4-0.1,2.4-2.4c0-1.2,0.4-2.2,1.1-2.9c1.2-1.1,2.8-1.2,2.9-1.2
		c0,0,0,0,0,0c0,0,0,0,0,0v0c1.4,0,4.1,0.9,4.1,4.1c0,2.3,2.1,2.4,2.4,2.4c0.4,0,2.4-0.1,2.4-2.4c0-1.2,0.4-2.2,1.1-2.9
		c1.1-1.1,2.8-1.2,2.9-1.2c0,0,0,0,0,0c0,0,0,0,0,0v0c1.4,0,4,0.9,4,4.1c0,2.2,2,2.4,2.4,2.4c0.4,0,2.4-0.1,2.4-2.4
		c0-1.2,0.4-2.2,1.1-2.9c1.1-1.1,2.6-1.2,2.9-1.2v-0.8c0-2.1-2.6-3.8-5.7-3.8H51.8v-4.6h18.1c1.1,0,2.1-0.9,2.1-2.1s-0.9-2-2.1-2H68
		h-0.9c0-0.8,0-3.9,0-7c-1.4-0.4-3-1.4-3-3.9c0-2.3-2.1-2.4-2.4-2.4c-0.4,0-2.3,0.2-2.3,2.4c0,3.3-2.7,4.1-4.1,4.1
		c-1.4,0-4.1-0.9-4.1-4.1c0-2.3-2.1-2.4-2.4-2.4c-0.4,0-2.3,0.1-2.3,2.4c0,3.3-2.7,4.1-4.1,4.1c-1.4,0-4.1-0.9-4.1-4.1
		c0-2.3-2.1-2.4-2.4-2.4c-0.4,0-2.3,0.2-2.3,2.4c0,2.2-1.3,3.3-2.5,3.8c0,3.2,0,6.4,0,7.2h-0.4H29c-1.1,0-2.1,0.9-2.1,2
		s0.9,2.1,2.1,2.1H47v4.6H29.6c-3.2,0-5.7,1.7-5.7,3.8v0.1h0l0,0.7C25.3,56.2,28,57.1,28,60.3z M60,38.9C60,38.9,60,38.9,60,38.9
		c0-0.2,0.1-0.3,0.2-0.5c0,0,0,0,0,0c0,0,0-0.1,0.1-0.1c0.3-0.4,0.7-0.8,1-1.1c0.2-0.2,0.5-0.2,0.7,0c0.3,0.4,0.7,0.7,1,1.1
		c0.1,0.1,0.1,0.1,0.1,0.2c0,0,0,0.1,0.1,0.1c0,0.1,0,0.1,0.1,0.2c0,0,0,0.1,0,0.1c0,0.1,0,0.1,0,0.2c0,0,0,0,0,0c0,0,0,0,0,0
		c0,0,0,0,0,0c0,0.2-0.1,0.3-0.2,0.4c0,0,0,0,0,0c0,0,0,0.1-0.1,0.1c-0.3,0.4-0.7,0.8-1,1.1c-0.2,0.2-0.5,0.2-0.7,0
		c-0.3-0.4-0.7-0.7-1-1.1c-0.1-0.1-0.1-0.1-0.1-0.2c0,0,0-0.1-0.1-0.1c0-0.1,0-0.1-0.1-0.2c0,0,0-0.1,0-0.1C60,39.1,60,39,60,38.9
		C60,39,60,39,60,38.9C60,38.9,60,38.9,60,38.9z M47.3,38.9C47.3,38.9,47.3,38.9,47.3,38.9c0-0.2,0.1-0.3,0.2-0.5c0,0,0,0,0,0
		c0,0,0-0.1,0.1-0.1c0.3-0.4,0.7-0.8,1-1.1c0.2-0.2,0.5-0.2,0.7,0c0.3,0.4,0.7,0.7,1,1.1c0.1,0.1,0.1,0.1,0.1,0.2c0,0,0,0.1,0.1,0.1
		c0,0.1,0.1,0.1,0.1,0.2c0,0,0,0.1,0,0.1c0,0.1,0,0.1,0,0.2c0,0,0,0,0,0c0,0,0,0,0,0c0,0,0,0,0,0c0,0.2-0.2,0.5-0.2,0.5
		c0,0,0,0.1-0.1,0.1c-0.3,0.4-0.7,0.8-1,1.1c-0.2,0.2-0.5,0.2-0.7,0c-0.3-0.4-0.7-0.7-1-1.1c-0.1-0.1-0.1-0.1-0.1-0.2
		c0,0,0-0.1-0.1-0.1c0-0.1,0-0.1-0.1-0.2c0,0,0-0.1,0-0.1C47.3,39.1,47.3,39,47.3,38.9C47.3,39,47.3,39,47.3,38.9
		C47.3,38.9,47.3,38.9,47.3,38.9z M37.5,39.1C37.5,39.1,37.5,39.1,37.5,39.1c0,0.2-0.1,0.3-0.2,0.5c0,0,0,0,0,0c0,0,0,0.1-0.1,0.1
		c-0.3,0.4-0.7,0.8-1,1.1c-0.2,0.2-0.5,0.2-0.7,0c-0.3-0.4-0.7-0.7-1-1.1c-0.1-0.1-0.1-0.1-0.1-0.2c0,0,0-0.1-0.1-0.1
		c0-0.1,0-0.1-0.1-0.2c0,0,0-0.1,0-0.1c0-0.1,0-0.1,0-0.2c0,0,0,0,0-0.1c0,0,0,0,0,0c0,0,0,0,0,0c0-0.2,0.1-0.3,0.2-0.4c0,0,0,0,0,0
		c0,0,0-0.1,0.1-0.1c0.3-0.4,0.7-0.8,1-1.1c0.2-0.2,0.5-0.2,0.7,0c0.3,0.4,0.7,0.7,1,1.1c0.1,0.1,0.1,0.1,0.1,0.2c0,0,0,0.1,0.1,0.1
		c0,0.1,0,0.1,0.1,0.2c0,0,0,0.1,0,0.1C37.5,38.9,37.5,39,37.5,39.1C37.5,39,37.5,39.1,37.5,39.1C37.5,39.1,37.5,39.1,37.5,39.1z"/>
	<path d="M77.9,70.8h-2.5v-2.2c-0.2,0.2-0.5,0.2-0.7,0c-0.4-0.4-0.7-0.8-1.1-1.2c-0.2-0.3-0.3-0.6-0.3-0.9c0-0.4,0.3-0.8,0.6-0.9
		c0.4-0.2,0.8-0.1,1.1,0.2c0,0,0.1,0.1,0.1,0.1c0,0,0.1-0.1,0.1-0.1c0.1-0.1,0.1-0.1,0.2-0.1v-7.7c-0.5,0-2.3,0.2-2.3,2.4
		c0,3.3-2.7,4.1-4.1,4.1c-1.4,0-4.1-0.9-4.1-4.1c0-2.3-2.1-2.4-2.4-2.4c-0.4,0-2.3,0.2-2.3,2.4c0,3.3-2.7,4.1-4.1,4.1
		c-1.4,0-4.1-0.9-4.1-4.1c0-2.3-2.1-2.4-2.4-2.4c-0.4,0-2.3,0.1-2.3,2.4c0,3.3-2.7,4.1-4.1,4.1c-1.4,0-4.1-0.9-4.1-4.1
		c0-2.3-2.1-2.4-2.4-2.4c-0.4,0-2.3,0.2-2.3,2.4c0,3.3-2.7,4.1-4.1,4.1c-1.4,0-4.1-0.9-4.1-4.1c0-2.2-2-2.4-2.3-2.4l0,7.8
		c0,0,0,0.1,0.1,0.1c0,0,0.1-0.1,0.1-0.1c0.2-0.2,0.4-0.3,0.7-0.3c0.5,0,0.9,0.4,1,0.9c0,0.1,0,0.1,0,0.2c0,0.3-0.1,0.6-0.3,0.8
		c-0.4,0.4-0.8,0.8-1.1,1.2c-0.1,0.1-0.3,0.2-0.5,0.1v2.1h-2.5c-1.6,0-2.8,1.3-2.8,2.8c0,1.6,1.3,2.8,2.8,2.8h24.9
		c-0.1,9.2-4,7.9-4.6,7.9c-1.2,0.1-2.2,1.1-2.2,2.3c0,1.2,1,2.2,2.3,2.2h15.6c1.2,0,2.2-1,2.3-2.2c0-1.2-0.9-2.3-2.1-2.3
		c-0.7,0-4.6,1.3-4.7-8h24.9c1.6,0,2.8-1.3,2.8-2.8C80.7,72.1,79.4,70.8,77.9,70.8z M37.9,67.3c-0.4,0.4-0.8,0.8-1.1,1.2
		c-0.2,0.2-0.6,0.2-0.8,0c-0.4-0.4-0.7-0.8-1.1-1.2c-0.2-0.3-0.3-0.6-0.3-0.9c0-0.4,0.3-0.8,0.6-0.9c0.4-0.2,0.8-0.1,1.1,0.2
		c0,0,0.1,0.1,0.1,0.1c0,0,0.1-0.1,0.1-0.1c0.2-0.2,0.4-0.3,0.7-0.3c0.5,0,0.9,0.4,1,0.9c0,0.1,0,0.1,0,0.2
		C38.2,66.8,38.1,67.1,37.9,67.3z M51.2,67.3c-0.4,0.4-0.8,0.8-1.1,1.2c-0.2,0.2-0.6,0.2-0.8,0c-0.4-0.4-0.7-0.8-1.1-1.2
		c-0.2-0.3-0.3-0.6-0.3-0.9c0-0.4,0.3-0.8,0.6-0.9c0.4-0.2,0.8-0.1,1.1,0.2c0,0,0.1,0.1,0.1,0.1c0,0,0.1-0.1,0.1-0.1
		c0.2-0.2,0.4-0.3,0.7-0.3c0.5,0,0.9,0.4,1,0.9c0,0.1,0,0.1,0,0.2C51.5,66.8,51.4,67.1,51.2,67.3z M63.9,67.3
		c-0.4,0.4-0.8,0.8-1.1,1.2c-0.2,0.2-0.6,0.2-0.8,0c-0.4-0.4-0.7-0.8-1.1-1.2c-0.2-0.3-0.3-0.6-0.3-0.9c0-0.4,0.3-0.8,0.6-0.9
		c0.4-0.2,0.8-0.1,1.1,0.2c0,0,0.1,0.1,0.1,0.1c0,0,0.1-0.1,0.1-0.1c0.2-0.2,0.4-0.3,0.7-0.3c0.5,0,0.9,0.4,1,0.9c0,0.1,0,0.1,0,0.2
		C64.2,66.8,64.1,67.1,63.9,67.3z"/>
	<circle cx="45.8" cy="11.7" r="2.1"/>
	<path d="M32,32c0-1.2,0.4-2.2,1.1-2.9c1.1-1.1,2.8-1.2,2.9-1.2c0,0,0,0,0,0c0,0,0,0,0,0v0c1.4,0,4,0.9,4,4.1c0,2.3,2.1,2.4,2.4,2.4
		c0.4,0,2.4-0.1,2.4-2.4c0-1.2,0.4-2.2,1.1-2.9c1.2-1.1,2.8-1.2,2.9-1.2c0,0,0,0,0,0s0,0,0,0v0c1.4,0,4.1,0.9,4.1,4.1
		c0,2.3,2.1,2.4,2.4,2.4c0.4,0,2.4-0.1,2.4-2.4c0-1.2,0.4-2.2,1.1-2.9c1.1-1.1,2.8-1.2,2.9-1.2c0,0,0,0,0,0c0,0,0,0,0,0v0
		c1.4,0,4,0.9,4,4.1c0,1.3,0.6,1.9,1.3,2.1c0-3.2,0-6.1,0-6.1v0h0c-0.1-2.1-1.8-3.8-4-3.8h-4h-2.9h-2v-4c0.7-0.5,1.2-1.4,1.2-2.3
		c0-0.9-0.5-1.8-1.2-2.3v-1.2c0-0.1-0.1-0.2-0.2-0.2l-1.5,0.7L51,14.2c-0.1,0-0.2,0.1-0.2,0.2v1.2c-0.7,0.5-1.2,1.4-1.2,2.4
		c0,0.9,0.4,1.7,1.1,2.2v4.1h-1.5h-1.6v-4.1c0.7-0.5,1.2-1.4,1.2-2.3c0-0.9-0.5-1.8-1.2-2.3v-1.2c0-0.1-0.1-0.2-0.2-0.2L46,14.8
		l-1.5-0.7c-0.1,0-0.2,0.1-0.2,0.2v1.2C43.5,16,43,16.8,43,17.8c0,0.9,0.4,1.7,1.1,2.2v4.2h-8.9c-2.1,0-3.9,1.7-4,3.8h0v0
		c0,0,0,2.7,0,5.8C31.6,33.5,32,32.9,32,32z"/>
	<circle cx="52.4" cy="11.7" r="2.1"/>
</g>
</svg>
